
<svg version="1.1" xmlns="http://www.w3.org/2000/svg" viewBox="0 0 80 80">
<style>text { font: 1px Helvetica; font-weight: 600; white-space: pre; dominant-baseline: central; } line { stroke-width: 1; fill: none; stroke-linecap: round; stroke-linejoin: round; } .c0 { stroke: #df8600 } .c1 { stroke: #0896d7 } .c2 { stroke: #00b251 } .c3 { stroke: #bd1038 } .c4 { stroke: #ff80ff }</style><defs><g id="wm-xf"><circle r="1.2" fill="#000"/><circle r="0.9" fill="#fff"/><circle r="0.6" fill="#000"/><circle r="0.3" fill="#fff"/></g><g id="wm"><circle r="0.6" fill="#000"/><circle r="0.3" fill="#fff"/></g></defs><line class="c0" x1="22" y1="32" x2="22" y2="47"/><line class="c0" x1="13" y1="22" x2="21" y2="30"/><line class="c0" x1="6" y1="22" x2="13" y2="22"/><line class="c1" x1="22" y1="31" x2="38" y2="47"/><line class="c1" x1="42" y1="47" x2="43" y2="46"/><line class="c1" x1="22" y1="31" x2="29" y2="24"/><line class="c1" x1="14" y1="7" x2="29" y2="22"/><line class="c1" x1="6" y1="7" x2="14" y2="7"/><line class="c1" x1="29" y1="22" x2="29" y2="24"/><line class="c1" x1="43" y1="32" x2="43" y2="47"/><line class="c1" x1="38" y1="47" x2="43" y2="47"/><line class="c2" x1="9" y1="44" x2="21" y2="32"/><line class="c2" x1="9" y1="44" x2="9" y2="47"/><line class="c3" x1="23" y1="31" x2="47" y2="31"/><line class="c3" x1="13" y1="34" x2="16" y2="31"/><line class="c3" x1="47" y1="31" x2="49" y2="29"/><line class="c3" x1="16" y1="31" x2="21" y2="31"/><line class="c3" x1="6" y1="34" x2="13" y2="34"/><line class="c4" x1="13" y1="15" x2="13" y2="21"/><line class="c4" x1="12" y1="15" x2="13" y2="16"/><line class="c4" x1="6" y1="15" x2="13" y2="15"/><line class="c4" x1="22" y1="26" x2="22" y2="30"/><line class="c4" x1="14" y1="22" x2="18" y2="22"/><line class="c4" x1="18" y1="22" x2="22" y2="26"/><line class="c4" x1="13" y1="21" x2="14" y2="22"/>

<use x="6" y="7" href="#wm"/><text x="6.75" y="7" transform="rotate(-45 6, 7)">S3</text><use x="6" y="15" href="#wm"/><text x="6.75" y="15" transform="rotate(-45 6, 15)">GenAI app</text><use x="6" y="22" href="#wm"/><text x="6.75" y="22" transform="rotate(-45 6, 22)">PostgreSQL</text><use x="6" y="34" href="#wm"/><text x="6.75" y="34" transform="rotate(-45 6, 34)">LLama 3-8b</text><use x="9" y="47" href="#wm"/><text x="9.75" y="47">Ray client</text><use x="11" y="34" href="#wm"/><text x="11.75" y="34" transform="rotate(-45 11, 34)">Model manager</text><use x="13" y="22" href="#wm-xf"/><text x="14.5" y="22" transform="rotate(-45 13, 22)">HELM</text><use x="13" y="40" href="#wm"/><text x="13.75" y="40">Ray Server</text><use x="17" y="10" href="#wm"/><text x="17.75" y="10">Airflow</text><use x="17" y="26" href="#wm"/><text x="16.25" y="26" text-anchor="end">Data source</text><use x="22" y="15" href="#wm"/><text x="22.75" y="15">Spark</text><use x="22" y="31" href="#wm-xf"/><text x="23.5" y="31" transform="rotate(-45 22, 31)">JupyterLab</text><use x="22" y="40" href="#wm"/><text x="22.75" y="40">Presto</text><use x="22" y="47" href="#wm"/><text x="22.75" y="47">Superset</text><use x="29" y="22" href="#wm"/><text x="29.75" y="22">K8s volumes</text><use x="29" y="38" href="#wm"/><text x="29.75" y="38" transform="rotate(-45 29, 38)">Kale</text><use x="32" y="31" href="#wm"/><text x="32.75" y="31" transform="rotate(-45 32, 31)">LLM API</text><use x="34" y="43" href="#wm"/><text x="34.75" y="43" transform="rotate(-45 34, 43)">Katib</text><use x="43" y="31" href="#wm-xf"/><text x="44.5" y="31" transform="rotate(-45 43, 31)">KServe</text><use x="43" y="37" href="#wm"/><text x="43.75" y="37">MLflow</text><use x="43" y="42" href="#wm"/><text x="43.75" y="42">Kubeflow pipelines</text><use x="43" y="47" href="#wm"/><text x="43.75" y="47">Tensorflow</text><use x="49" y="29" href="#wm"/><text x="49.75" y="29">Nvidia NIM</text>
</svg>

